<svg width="177" height="526" viewBox="0 0 177 526" fill="none" xmlns="http://www.w3.org/2000/svg">
<mask id="path-1-inside-1_122_218" fill="white">
<path d="M88.7155 0.585063C87.5547 0.997041 85.3697 2.16431 83.8675 3.19426C82.297 4.2242 80.2486 5.25415 79.2244 5.5288C75.4689 6.49008 72.7376 15.4163 72.7376 26.883C72.7376 31.8267 72.4645 34.7106 71.9865 35.0539C69.9381 36.2898 73.8301 52.7689 78.3367 61.6951C80.1803 65.3343 80.3852 66.2955 80.112 71.0333C79.9072 75.977 79.7706 76.5263 77.3125 79.5475C73.6936 83.9419 68.1628 87.5124 56.4184 93.1428C43.1035 99.5284 35.7974 103.236 34.7049 104.06C34.2269 104.472 32.6564 108.592 31.1542 113.192C28.6278 120.951 27.945 124.934 26.3745 139.696C26.0331 142.923 25.282 147.524 24.7358 149.996C23.9847 153.017 23.7798 156.244 24.053 159.952L24.4626 165.445L21.8679 168.809C15.0398 177.873 12.9914 189.34 16.7468 197.854C18.6587 202.317 20.434 203.965 24.6675 205.544C30.4031 207.741 34.1586 207.947 39.9625 206.368C42.7621 205.613 45.1519 205.132 45.3568 205.338C45.4933 205.475 43.9229 211.586 41.8061 218.796C39.6894 226.074 37.7775 234.177 37.5727 236.854C37.2996 239.464 36.685 243.789 36.2071 246.467C35.7291 249.076 34.8414 253.883 34.2269 257.11C33.6806 260.337 32.0419 269.057 30.6763 276.61C27.945 291.647 27.8767 291.098 32.5881 291.853C37.8458 292.746 37.8458 292.746 37.0264 308.607C36.4802 318.701 36.5485 319.593 38.1189 325.773C39.6211 331.472 39.826 333.326 39.5528 340.879C39.348 345.617 38.9383 350.56 38.5969 351.865C37.5727 355.641 37.7775 357.427 39.6894 360.242L41.4647 362.851L39.6894 367.657C38.7335 370.404 37.5044 376.034 36.8899 380.566C36.2753 384.96 35.2511 390.728 34.5683 393.406C33.8172 396.015 32.7247 401.92 32.1102 406.383C31.0859 413.524 31.0177 415.309 31.7688 420.253C32.8613 427.463 32.3833 436.732 29.7886 455.889C28.1498 467.974 27.945 470.583 28.6961 472.025C29.4472 473.467 29.3789 474.085 28.3547 475.939C27.3987 477.793 27.3305 478.754 27.8767 481.981L28.5595 485.826L25.2137 489.26C23.3701 491.113 20.0243 493.997 17.8393 495.577C11.0795 500.383 9.1676 502.374 7.39228 506.082C6.23149 508.554 5.00243 509.996 3.29539 510.888C-1.00634 513.223 -1.1429 517.137 3.15883 518.647C11.4209 521.531 34.022 516.038 37.0947 510.408C39.0066 506.769 40.4405 505.67 43.1718 505.67C46.2444 505.67 55.4624 502.511 57.2377 500.864C58.262 499.971 58.5351 498.186 58.8082 491.182C59.0813 486.17 59.6276 481.775 60.1738 480.471C60.7201 479.303 61.1298 477.45 61.1298 476.42C61.1298 475.184 62.0857 473.33 63.861 471.27C67.1385 467.356 67.2068 466.738 64.8853 455.409C62.9051 445.727 62.8368 443.324 64.1342 438.655C65.2267 434.81 65.6364 432.544 69.2553 411.945C72.3962 394.367 73.8301 384.205 74.4447 375.554C74.7861 371.297 75.4689 368.207 76.5614 365.666C78.7464 360.791 80.0437 355.641 80.9314 348.226C81.4094 344.106 82.297 341.016 83.5944 338.27C86.3939 332.777 88.3741 325.842 89.3983 318.22C90.2177 312.246 93.0172 301.123 94.7243 296.935C95.3388 295.287 95.4071 295.287 96.363 296.523C96.841 297.278 97.4555 298.994 97.7286 300.299C99.1626 308.745 102.577 323.026 104.898 330.167C107.834 339.094 110.361 349.256 111.59 357.015C112.068 359.624 113.297 365.254 114.389 369.511C115.823 374.936 116.438 378.781 116.438 382.626C116.438 385.853 117.394 393.406 118.828 401.371C120.193 408.718 122.173 419.773 123.334 426.021C124.427 432.269 126.339 440.921 127.431 445.247C129.138 451.77 129.548 454.653 129.684 461.726C129.753 468.935 129.616 470.652 128.592 472.368C126.27 476.282 127.363 482.119 131.596 487.886C132.62 489.26 132.962 491.045 133.167 496.263C133.303 499.834 133.713 503.473 134.123 504.228C135.147 506.151 138.356 507.73 141.224 507.73C143.887 507.73 145.116 508.76 145.116 511.026C145.116 514.253 146.755 518.098 149.281 521.05C153.241 525.582 154.812 526.063 166.42 525.994C171.882 525.926 176.662 525.72 176.935 525.445C177.208 525.102 176.594 521.394 175.569 517.205C173.794 509.721 173.521 509.172 168.332 501.894C165.327 497.705 162.391 493.311 161.845 492.143C160.821 490.015 160.821 489.74 162.459 486.994C164.166 483.904 165.942 475.664 165.191 473.879C164.713 472.643 161.435 471.338 158.704 471.338C156.997 471.338 156.724 471.064 156.724 469.279C156.724 468.18 157.543 462.824 158.499 457.469C160.889 444.011 161.435 429.248 159.865 422.588C159.045 419.292 158.841 416.614 159.114 414.348C160.001 408.031 159.523 404.667 156.382 392.513C154.607 385.853 152.9 379.399 152.559 378.3C152.149 377.133 151.739 372.67 151.603 368.344C151.466 363.538 150.852 358.319 150.032 354.955L148.667 349.53L151.056 345.479C153.173 342.115 153.651 340.604 154.197 335.111C154.812 329.412 154.744 327.764 153.378 320.829L151.876 313.07L153.31 309.363C154.061 307.303 155.017 303.32 155.358 300.505C155.768 297.621 156.451 295.081 156.86 294.737C157.338 294.463 159.455 293.913 161.504 293.501C167.034 292.403 167.649 292.128 167.649 291.167C167.649 289.862 164.03 272.353 161.504 261.23C157.543 243.927 156.041 236.168 156.041 232.323C156.041 229.645 155.29 226.418 153.651 221.886C152.354 218.247 150.647 211.518 149.896 206.849C149.145 202.18 148.325 197.922 148.189 197.305C147.847 196.343 148.598 196.137 152.49 195.863C158.636 195.382 160.821 194.077 164.849 188.104C170.926 179.177 172.838 173.959 175.228 159.059C176.594 150.408 176.594 149.584 175.638 144.297C174.887 140.04 174.818 137.636 175.296 134.547C175.774 131.731 175.706 128.985 175.228 125.964C174.818 123.492 173.999 117.655 173.453 112.986C172.565 105.502 172.224 104.198 170.653 102.55C168.127 99.8717 163.62 97.6745 154.334 94.3787C141.292 89.8469 132.825 85.3839 127.295 80.1655C123.129 76.183 122.378 75.7024 120.535 76.0457C118.828 76.389 118.281 76.183 117.325 74.6038C116.643 73.5738 115.55 72.3379 114.799 71.7886C113.707 70.9646 113.57 70.2093 113.911 65.9522C114.116 63.2744 114.662 59.4292 115.072 57.438C115.755 54.3482 116.165 53.6616 117.872 53.0436C119.374 52.5629 120.398 51.1897 122.242 47.5505C124.768 42.4695 125.178 39.6543 123.812 37.1824C123.266 36.1525 123.061 33.1313 123.129 28.1189L123.334 20.566L121.013 16.6522C113.98 5.04816 107.015 0.5164 95.6119 0.0357594C93.0172 -0.101567 89.8763 0.173085 88.7155 0.585063Z"/>
</mask>
<path d="M88.7155 0.585063C87.5547 0.997041 85.3697 2.16431 83.8675 3.19426C82.297 4.2242 80.2486 5.25415 79.2244 5.5288C75.4689 6.49008 72.7376 15.4163 72.7376 26.883C72.7376 31.8267 72.4645 34.7106 71.9865 35.0539C69.9381 36.2898 73.8301 52.7689 78.3367 61.6951C80.1803 65.3343 80.3852 66.2955 80.112 71.0333C79.9072 75.977 79.7706 76.5263 77.3125 79.5475C73.6936 83.9419 68.1628 87.5124 56.4184 93.1428C43.1035 99.5284 35.7974 103.236 34.7049 104.06C34.2269 104.472 32.6564 108.592 31.1542 113.192C28.6278 120.951 27.945 124.934 26.3745 139.696C26.0331 142.923 25.282 147.524 24.7358 149.996C23.9847 153.017 23.7798 156.244 24.053 159.952L24.4626 165.445L21.8679 168.809C15.0398 177.873 12.9914 189.34 16.7468 197.854C18.6587 202.317 20.434 203.965 24.6675 205.544C30.4031 207.741 34.1586 207.947 39.9625 206.368C42.7621 205.613 45.1519 205.132 45.3568 205.338C45.4933 205.475 43.9229 211.586 41.8061 218.796C39.6894 226.074 37.7775 234.177 37.5727 236.854C37.2996 239.464 36.685 243.789 36.2071 246.467C35.7291 249.076 34.8414 253.883 34.2269 257.11C33.6806 260.337 32.0419 269.057 30.6763 276.61C27.945 291.647 27.8767 291.098 32.5881 291.853C37.8458 292.746 37.8458 292.746 37.0264 308.607C36.4802 318.701 36.5485 319.593 38.1189 325.773C39.6211 331.472 39.826 333.326 39.5528 340.879C39.348 345.617 38.9383 350.56 38.5969 351.865C37.5727 355.641 37.7775 357.427 39.6894 360.242L41.4647 362.851L39.6894 367.657C38.7335 370.404 37.5044 376.034 36.8899 380.566C36.2753 384.96 35.2511 390.728 34.5683 393.406C33.8172 396.015 32.7247 401.92 32.1102 406.383C31.0859 413.524 31.0177 415.309 31.7688 420.253C32.8613 427.463 32.3833 436.732 29.7886 455.889C28.1498 467.974 27.945 470.583 28.6961 472.025C29.4472 473.467 29.3789 474.085 28.3547 475.939C27.3987 477.793 27.3305 478.754 27.8767 481.981L28.5595 485.826L25.2137 489.26C23.3701 491.113 20.0243 493.997 17.8393 495.577C11.0795 500.383 9.1676 502.374 7.39228 506.082C6.23149 508.554 5.00243 509.996 3.29539 510.888C-1.00634 513.223 -1.1429 517.137 3.15883 518.647C11.4209 521.531 34.022 516.038 37.0947 510.408C39.0066 506.769 40.4405 505.67 43.1718 505.67C46.2444 505.67 55.4624 502.511 57.2377 500.864C58.262 499.971 58.5351 498.186 58.8082 491.182C59.0813 486.17 59.6276 481.775 60.1738 480.471C60.7201 479.303 61.1298 477.45 61.1298 476.42C61.1298 475.184 62.0857 473.33 63.861 471.27C67.1385 467.356 67.2068 466.738 64.8853 455.409C62.9051 445.727 62.8368 443.324 64.1342 438.655C65.2267 434.81 65.6364 432.544 69.2553 411.945C72.3962 394.367 73.8301 384.205 74.4447 375.554C74.7861 371.297 75.4689 368.207 76.5614 365.666C78.7464 360.791 80.0437 355.641 80.9314 348.226C81.4094 344.106 82.297 341.016 83.5944 338.27C86.3939 332.777 88.3741 325.842 89.3983 318.22C90.2177 312.246 93.0172 301.123 94.7243 296.935C95.3388 295.287 95.4071 295.287 96.363 296.523C96.841 297.278 97.4555 298.994 97.7286 300.299C99.1626 308.745 102.577 323.026 104.898 330.167C107.834 339.094 110.361 349.256 111.59 357.015C112.068 359.624 113.297 365.254 114.389 369.511C115.823 374.936 116.438 378.781 116.438 382.626C116.438 385.853 117.394 393.406 118.828 401.371C120.193 408.718 122.173 419.773 123.334 426.021C124.427 432.269 126.339 440.921 127.431 445.247C129.138 451.77 129.548 454.653 129.684 461.726C129.753 468.935 129.616 470.652 128.592 472.368C126.27 476.282 127.363 482.119 131.596 487.886C132.62 489.26 132.962 491.045 133.167 496.263C133.303 499.834 133.713 503.473 134.123 504.228C135.147 506.151 138.356 507.73 141.224 507.73C143.887 507.73 145.116 508.76 145.116 511.026C145.116 514.253 146.755 518.098 149.281 521.05C153.241 525.582 154.812 526.063 166.42 525.994C171.882 525.926 176.662 525.72 176.935 525.445C177.208 525.102 176.594 521.394 175.569 517.205C173.794 509.721 173.521 509.172 168.332 501.894C165.327 497.705 162.391 493.311 161.845 492.143C160.821 490.015 160.821 489.74 162.459 486.994C164.166 483.904 165.942 475.664 165.191 473.879C164.713 472.643 161.435 471.338 158.704 471.338C156.997 471.338 156.724 471.064 156.724 469.279C156.724 468.18 157.543 462.824 158.499 457.469C160.889 444.011 161.435 429.248 159.865 422.588C159.045 419.292 158.841 416.614 159.114 414.348C160.001 408.031 159.523 404.667 156.382 392.513C154.607 385.853 152.9 379.399 152.559 378.3C152.149 377.133 151.739 372.67 151.603 368.344C151.466 363.538 150.852 358.319 150.032 354.955L148.667 349.53L151.056 345.479C153.173 342.115 153.651 340.604 154.197 335.111C154.812 329.412 154.744 327.764 153.378 320.829L151.876 313.07L153.31 309.363C154.061 307.303 155.017 303.32 155.358 300.505C155.768 297.621 156.451 295.081 156.86 294.737C157.338 294.463 159.455 293.913 161.504 293.501C167.034 292.403 167.649 292.128 167.649 291.167C167.649 289.862 164.03 272.353 161.504 261.23C157.543 243.927 156.041 236.168 156.041 232.323C156.041 229.645 155.29 226.418 153.651 221.886C152.354 218.247 150.647 211.518 149.896 206.849C149.145 202.18 148.325 197.922 148.189 197.305C147.847 196.343 148.598 196.137 152.49 195.863C158.636 195.382 160.821 194.077 164.849 188.104C170.926 179.177 172.838 173.959 175.228 159.059C176.594 150.408 176.594 149.584 175.638 144.297C174.887 140.04 174.818 137.636 175.296 134.547C175.774 131.731 175.706 128.985 175.228 125.964C174.818 123.492 173.999 117.655 173.453 112.986C172.565 105.502 172.224 104.198 170.653 102.55C168.127 99.8717 163.62 97.6745 154.334 94.3787C141.292 89.8469 132.825 85.3839 127.295 80.1655C123.129 76.183 122.378 75.7024 120.535 76.0457C118.828 76.389 118.281 76.183 117.325 74.6038C116.643 73.5738 115.55 72.3379 114.799 71.7886C113.707 70.9646 113.57 70.2093 113.911 65.9522C114.116 63.2744 114.662 59.4292 115.072 57.438C115.755 54.3482 116.165 53.6616 117.872 53.0436C119.374 52.5629 120.398 51.1897 122.242 47.5505C124.768 42.4695 125.178 39.6543 123.812 37.1824C123.266 36.1525 123.061 33.1313 123.129 28.1189L123.334 20.566L121.013 16.6522C113.98 5.04816 107.015 0.5164 95.6119 0.0357594C93.0172 -0.101567 89.8763 0.173085 88.7155 0.585063Z" stroke="white" stroke-opacity="0.05" stroke-width="4" mask="url(#path-1-inside-1_122_218)"/>
</svg>
