<svg width="36" height="36" viewBox="0 0 36 36" fill="none" xmlns="http://www.w3.org/2000/svg">
<g opacity="0.1">
<path d="M23.692 3.78576C23.1441 3.67891 22.5762 3.79406 22.1132 4.10588C21.6502 4.4177 21.3301 4.90065 21.2231 5.44851L25.3547 6.25457C25.4076 5.98329 25.4066 5.70423 25.3517 5.43334C25.2968 5.16245 25.1891 4.90502 25.0347 4.67577C24.8803 4.44651 24.6822 4.24992 24.4518 4.09721C24.2215 3.9445 23.9632 3.83867 23.692 3.78576V3.78576Z" fill="white"/>
<path d="M8.81228 19.4534C8.81228 19.4534 2.48106 23.9686 1.19519 25.5396C1.01339 25.77 0.879464 26.0343 0.80128 26.3172C0.723096 26.6 0.702229 26.8957 0.739907 27.1867C0.777585 27.4777 0.873048 27.7583 1.02069 28.0119C1.16832 28.2655 1.36516 28.487 1.59963 28.6635C3.97563 30.3749 6.31703 27.8847 7.86362 26.3038C12.1234 27.4018 15.1874 30.779 17.1561 31.8168C21.1499 33.9209 23.6904 27.5269 25.3939 25.3942C18.3281 21.0992 13.8281 19.9861 8.81228 19.4534V19.4534Z" fill="white"/>
<path d="M35.0156 22.2724C34.9093 23.0484 34.5281 23.7605 33.9413 24.2792C33.3544 24.7979 32.6009 25.0888 31.8178 25.0989C31.1006 25.1045 30.3299 25.1017 29.6212 25.0708C29.3448 25.058 29.0693 25.1108 28.8171 25.2246C28.5649 25.3385 28.3432 25.5103 28.1699 25.7261C26.8143 27.4249 23.1553 31.6211 19.7043 32.1892C18.8346 32.3547 17.9345 32.224 17.1478 31.818C15.179 30.7802 12.1134 27.4024 7.85525 26.3027C4.6715 25.4842 2.29775 25.9286 0.762127 27.3883C0.693484 27.068 0.695938 26.7365 0.769316 26.4172C0.842693 26.098 0.985208 25.7987 1.18681 25.5405C2.47213 23.9683 7.079 18.557 7.079 18.557C7.76807 9.06486 14.2734 3.88704 23.279 5.29329C27.6468 5.97392 31.0865 8.30267 32.819 10.8311C35.3334 14.4986 35.6203 17.9917 35.0156 22.2724V22.2724Z" fill="white"/>
<path d="M28.8899 25.1944C28.6072 25.3049 28.3588 25.4883 28.1699 25.726C26.8143 27.4247 23.1553 31.621 19.7043 32.1891C18.8346 32.3546 17.9345 32.2239 17.1478 31.8179C15.179 30.7801 12.1134 27.4022 7.85525 26.3026C4.6715 25.4841 2.29775 25.9285 0.762127 27.3882C0.693484 27.0679 0.695938 26.7364 0.769316 26.4171C0.842693 26.0979 0.985208 25.7986 1.18681 25.5404C2.47213 23.9682 7.079 18.5569 7.079 18.5569C9.3174 17.8945 11.6903 17.8305 13.9612 18.3713C19.4456 19.6594 22.6181 23.0907 28.8899 25.1944V25.1944Z" fill="white"/>
<path d="M28.8895 25.6163C28.8439 25.6164 28.7985 25.609 28.7553 25.5944C25.7575 24.5889 23.494 23.3039 21.305 22.0613C18.938 20.7178 16.7021 19.4485 13.8651 18.7819C11.6726 18.2629 9.38284 18.3225 7.22029 18.9549C7.11478 18.9922 6.99878 18.986 6.8978 18.9378C6.79682 18.8896 6.71913 18.8032 6.68184 18.6977C6.64454 18.5922 6.65069 18.4762 6.69892 18.3752C6.74716 18.2742 6.83353 18.1965 6.93904 18.1592C9.25303 17.4654 11.7095 17.3969 14.0586 17.9607C17.0148 18.6548 19.3019 19.953 21.7232 21.3278C23.8776 22.5504 26.1048 23.8149 29.0253 24.7945C29.1202 24.8263 29.2007 24.8909 29.2523 24.9766C29.304 25.0623 29.3235 25.1636 29.3074 25.2624C29.2913 25.3612 29.2406 25.451 29.1643 25.5158C29.0881 25.5807 28.9913 25.6163 28.8912 25.6163H28.8895Z" fill="white"/>
</g>
</svg>
