<svg width="36" height="36" viewBox="0 0 36 36" fill="none" xmlns="http://www.w3.org/2000/svg">
<g opacity="0.1">
<path d="M35.373 16.3427H34.7625C34.1557 11.5495 29.6198 11.5458 28.0576 11.5458C27.6639 11.5458 27.2776 11.5563 26.9146 11.566C26.6056 11.5743 26.3131 11.5818 26.0439 11.5818C25.2309 11.5818 24.4974 11.6155 23.8262 11.68C19.9818 10.3615 15.8066 10.3615 11.963 11.68C11.291 11.6155 10.5583 11.5818 9.74454 11.5818C9.47602 11.5818 9.18283 11.5736 8.87458 11.566C8.51086 11.5556 8.12612 11.5458 7.73161 11.5458C6.16866 11.5458 1.63346 11.5503 1.02675 16.3427H0.625487C0.278994 16.3427 0 16.6239 0 16.9682C0 17.3147 0.278994 17.5937 0.625487 17.5937H0.95398C0.91348 20.1691 2.10898 24.8543 7.00712 25.272C7.10535 25.2862 7.31389 25.3087 7.60934 25.3087C8.77031 25.3087 11.8018 24.9435 14.9007 21.5663C15.1159 21.3488 16.4741 19.8923 17.0823 17.5937H18.7046C19.3143 19.8916 20.671 21.3488 20.887 21.5663C23.9852 24.9435 27.0166 25.3087 28.1776 25.3087C28.4746 25.3087 28.6824 25.2862 28.7814 25.272C33.6781 24.8535 34.875 20.1683 34.833 17.5937H35.3737C35.7195 17.5937 36 17.3147 36 16.9682C35.9992 16.6239 35.7188 16.3427 35.373 16.3427ZM19.2678 13.3953C18.5959 14.1408 18.3273 15.0752 18.4481 16.2542C18.4511 16.2857 18.4593 16.3119 18.463 16.3427H17.3223C17.326 16.312 17.3343 16.2857 17.3373 16.2542C17.458 15.076 17.191 14.1415 16.5175 13.3953C16.0593 12.8875 15.4151 12.4975 14.5856 12.2058C16.7695 11.7753 19.0165 11.7753 21.1997 12.2058C20.3703 12.4975 19.7268 12.8882 19.2678 13.3953Z" fill="white"/>
<path d="M19.4682 16.1492C19.2822 14.3357 20.1221 12.6055 26.0433 12.6055C28.7605 12.6055 33.8087 11.8301 33.8087 17.4594C33.8087 17.4594 34.0509 23.8178 28.6645 24.2543C28.6645 24.2543 25.2671 24.8362 21.6274 20.8576C21.6267 20.8576 19.7652 19.0471 19.4682 16.1492Z" fill="white"/>
<path d="M16.3191 16.1492C16.5051 14.3357 15.6652 12.6055 9.7433 12.6055C7.02613 12.6055 1.97871 11.8301 1.97871 17.4594C1.97871 17.4594 1.73572 23.8178 7.12288 24.2543C7.12288 24.2543 10.5188 24.8362 14.16 20.8576C14.1607 20.8576 16.0207 19.0471 16.3191 16.1492Z" fill="white"/>
<path d="M7.52404 12.5664L1.99668 18.0945C1.97418 17.7038 1.98093 17.4563 1.98093 17.4563C1.98093 17.2088 1.98916 16.9763 2.01095 16.7581L6.12084 12.6564C6.58651 12.5971 7.059 12.5739 7.52404 12.5664Z" fill="white"/>
<path d="M11.0182 12.6342L2.65657 20.9965C2.43158 20.4798 2.2816 19.954 2.18408 19.4815L9.06894 12.5967C9.30891 12.5967 9.53391 12.6042 9.74393 12.6042C10.2014 12.605 10.6214 12.6117 11.0182 12.6342Z" fill="white"/>
<path d="M25.3281 12.6113L19.9065 18.0337C19.7864 17.7187 19.6815 17.373 19.6064 17.0055L23.9188 12.6931C24.3463 12.6571 24.8188 12.6263 25.3281 12.6113Z" fill="white"/>
<path d="M28.9059 12.5889L21.1661 20.3212C20.9411 20.0295 20.6561 19.6237 20.3936 19.1212L26.9266 12.5888C27.5409 12.5739 28.2159 12.5514 28.9059 12.5889Z" fill="white"/>
</g>
</svg>
