<svg width="36" height="36" viewBox="0 0 36 36" fill="none" xmlns="http://www.w3.org/2000/svg">
<g opacity="0.1">
<path d="M8.69005 6.82764C8.34728 6.82764 8.06934 7.10551 8.06934 7.44836V13.6553C8.06934 13.998 8.34721 14.276 8.69005 14.276C9.03283 14.276 9.31077 13.9981 9.31077 13.6553V7.44836C9.3107 7.10558 9.03283 6.82764 8.69005 6.82764Z" fill="white"/>
<path d="M27.3107 6.82764C26.9679 6.82764 26.6899 7.10551 26.6899 7.44836V13.6553C26.6899 13.998 26.9678 14.276 27.3107 14.276C27.6535 14.276 27.9314 13.9981 27.9314 13.6553V7.44836C27.9314 7.10558 27.6535 6.82764 27.3107 6.82764Z" fill="white"/>
<path d="M9.38462 16.0016C10.212 15.6686 10.6872 14.7957 10.5176 13.9201C10.348 13.0445 9.58135 12.4121 8.68943 12.4121C7.79752 12.4121 7.0309 13.0445 6.86131 13.9201C6.69171 14.7957 7.16681 15.6686 7.99425 16.0016H9.38462Z" fill="white"/>
<path d="M28.0052 16.0016C28.8326 15.6686 29.3078 14.7957 29.1382 13.9201C28.9686 13.0445 28.2019 12.4121 27.31 12.4121C26.4181 12.4121 25.6515 13.0445 25.4819 13.9201C25.3123 14.7957 25.7874 15.6686 26.6149 16.0016H28.0052Z" fill="white"/>
<path d="M9.21459 15.7287C9.1009 15.5484 8.90269 15.439 8.6895 15.439C8.47631 15.439 8.27803 15.5484 8.16441 15.7287L2.03632 25.4481C-0.434673 29.7836 3.15977 35.9998 8.6895 35.9998C14.2186 35.9998 17.8137 29.7836 15.342 25.4481L9.21459 15.7287Z" fill="white"/>
<path d="M7.55969 21.3437L8.68996 19.5518L9.82024 21.3437L10.9499 23.1356L12.0801 24.9275L13.2098 26.7194C13.3781 27.0251 13.5005 27.3539 13.5729 27.6951C13.6465 28.0438 13.6729 28.4008 13.6511 28.7565C13.6281 29.1304 13.5594 29.4999 13.4463 29.857C13.3262 30.2382 13.1637 30.6049 12.9621 30.95C12.735 31.3413 12.4607 31.7032 12.1453 32.0275C11.8423 32.3389 11.5006 32.6101 11.1285 32.8344C10.7635 33.0542 10.3709 33.2243 9.961 33.3403C9.12984 33.5736 8.25044 33.5736 7.41927 33.3403C7.00914 33.2243 6.61631 33.0542 6.2511 32.8344C5.87894 32.6103 5.53722 32.3391 5.23438 32.0275C4.91854 31.7029 4.64411 31.3404 4.41756 30.9482C4.21584 30.6033 4.05342 30.2369 3.93339 29.8557C3.82089 29.4983 3.75206 29.1285 3.72857 28.7546C3.70685 28.3991 3.73314 28.0424 3.80676 27.6939C3.87918 27.3526 4.00152 27.0238 4.16985 26.7182L5.29949 24.9262L6.42977 23.1343L7.55969 21.3437Z" fill="white"/>
<path d="M8.68907 32.276C7.64135 32.2767 6.63412 31.871 5.87924 31.1444C5.62542 30.9013 5.4033 30.6271 5.21824 30.3282C5.05476 30.0661 4.92208 29.786 4.82287 29.4934C4.72816 29.2124 4.67057 28.9203 4.65159 28.6244C4.63331 28.3356 4.6563 28.0457 4.71986 27.7635C4.78427 27.4796 4.89234 27.2074 5.04014 26.9566L8.17396 22.3045C8.29806 22.1206 8.51076 22.017 8.73196 22.0325C8.95317 22.0481 9.14934 22.1805 9.24651 22.3798C9.34368 22.5791 9.32709 22.8153 9.20306 22.9991L6.08969 27.6207C6.01727 27.7526 5.96383 27.8941 5.93078 28.0409C5.89338 28.2072 5.88002 28.3779 5.89106 28.548C5.90392 28.7361 5.94105 28.9218 6.00152 29.1004C6.06986 29.3012 6.16106 29.4934 6.27335 29.6733C6.40413 29.8833 6.56029 30.0763 6.73825 30.2481C6.9115 30.4137 7.10479 30.5569 7.31362 30.6745C7.73317 30.9117 8.20715 31.0357 8.68907 31.0345C9.03185 31.0345 9.30979 31.3124 9.30979 31.6552C9.30972 31.9981 9.03185 32.276 8.68907 32.276Z" fill="white"/>
<path d="M27.8352 15.7287C27.7215 15.5484 27.5233 15.439 27.3101 15.439C27.0969 15.439 26.8986 15.5484 26.785 15.7287L20.6569 25.4481C18.1859 29.7836 21.7803 35.9998 27.31 35.9998C32.8391 35.9998 36.4342 29.7836 33.9626 25.4481L27.8352 15.7287Z" fill="white"/>
<path d="M26.1797 21.3437L27.31 19.5518L28.4403 21.3437L29.5699 23.1356L30.7002 24.9275L31.8298 26.7194C31.9982 27.0251 32.1205 27.3539 32.1929 27.6951C32.2665 28.0438 32.2929 28.4008 32.2711 28.7565C32.2482 29.1304 32.1794 29.4999 32.0663 29.857C31.9462 30.2382 31.7838 30.6049 31.5822 30.95C31.3552 31.3413 31.0808 31.7032 30.7654 32.0275C30.4624 32.3389 30.1207 32.6101 29.7487 32.8344C29.3837 33.0542 28.991 33.2243 28.5811 33.3403C27.75 33.5736 26.8706 33.5736 26.0394 33.3403C25.6293 33.2243 25.2364 33.0542 24.8712 32.8344C24.4991 32.6103 24.1573 32.3391 23.8545 32.0275C23.5387 31.7029 23.2642 31.3404 23.0377 30.9482C22.836 30.6033 22.6735 30.2369 22.5535 29.8557C22.441 29.4983 22.3722 29.1285 22.3487 28.7546C22.327 28.3991 22.3533 28.0424 22.4269 27.6939C22.4993 27.3526 22.6216 27.0238 22.79 26.7182L23.9196 24.9262L25.0499 23.1343L26.1797 21.3437Z" fill="white"/>
<path d="M8.68955 8.68964C11.0891 8.68964 13.0344 6.7444 13.0344 4.34482C13.0344 1.94524 11.0891 0 8.68955 0C6.28997 0 4.34473 1.94524 4.34473 4.34482C4.34473 6.7444 6.28997 8.68964 8.68955 8.68964Z" fill="white"/>
<path d="M27.3102 8.68964C29.7097 8.68964 31.655 6.7444 31.655 4.34482C31.655 1.94524 29.7097 0 27.3102 0C24.9106 0 22.9653 1.94524 22.9653 4.34482C22.9653 6.7444 24.9106 8.68964 27.3102 8.68964Z" fill="white"/>
<path d="M8.68935 5.5862C8.00373 5.5862 7.44798 5.03046 7.44798 4.34484C7.44798 4.00207 7.17011 3.72412 6.82726 3.72412C6.48442 3.72412 6.20654 4.002 6.20654 4.34484C6.20654 5.716 7.31811 6.82757 8.68928 6.82757C9.03205 6.82757 9.31 6.5497 9.31 6.20685C9.31 5.86415 9.03212 5.5862 8.68935 5.5862Z" fill="white"/>
<path d="M8.68908 1.86206C8.3463 1.86206 8.06836 2.13994 8.06836 2.48278C8.06836 2.82562 8.34623 3.1035 8.68908 3.1035C9.3747 3.1035 9.93045 3.65925 9.93045 4.34486C9.93045 4.68764 10.2083 4.96558 10.5512 4.96558C10.894 4.96558 11.1719 4.68771 11.1719 4.34486C11.1718 2.97363 10.0602 1.86206 8.68908 1.86206Z" fill="white"/>
<path d="M27.31 5.5862C26.6243 5.5862 26.0686 5.03046 26.0686 4.34484C26.0686 4.00207 25.7907 3.72412 25.4479 3.72412C25.105 3.72412 24.8271 4.002 24.8271 4.34484C24.8271 5.716 25.9387 6.82757 27.3099 6.82757C27.6527 6.82757 27.9306 6.5497 27.9306 6.20685C27.9307 5.86415 27.6528 5.5862 27.31 5.5862Z" fill="white"/>
<path d="M27.3102 1.86206C26.9674 1.86206 26.6895 2.13994 26.6895 2.48278C26.6895 2.82562 26.9673 3.1035 27.3102 3.1035C27.9958 3.1035 28.5515 3.65925 28.5515 4.34486C28.5515 4.68764 28.8294 4.96558 29.1723 4.96558C29.5151 4.96558 29.793 4.68771 29.793 4.34486C29.793 2.97363 28.6814 1.86206 27.3102 1.86206Z" fill="white"/>
<path d="M27.6296 32.2759C26.9339 32.2773 26.2497 32.0988 25.6434 31.7577C25.3437 31.5884 25.0664 31.3824 24.8178 31.1444C24.5644 30.9011 24.3424 30.6269 24.1574 30.3282C23.9934 30.0664 23.8607 29.7862 23.762 29.4934C23.6673 29.2124 23.6097 28.9203 23.5907 28.6244C23.5721 28.3356 23.5951 28.0457 23.659 27.7635C23.7231 27.4795 23.8312 27.2073 23.9793 26.9566L27.1131 22.3045C27.2372 22.1206 27.4499 22.017 27.6711 22.0325C27.8923 22.0481 28.0885 22.1805 28.1857 22.3798C28.2828 22.5791 28.2662 22.8153 28.1422 22.9991L25.0295 27.6207C24.9571 27.7527 24.9035 27.8941 24.8699 28.0409C24.8327 28.2072 24.8196 28.378 24.8308 28.548C24.8434 28.7361 24.8805 28.9219 24.9413 29.1004C25.0096 29.3012 25.1008 29.4934 25.2131 29.6733C25.3439 29.8833 25.5001 30.0763 25.678 30.2481C25.8511 30.4138 26.0445 30.5571 26.2534 30.6745C26.4605 30.7911 26.6816 30.8809 26.9113 30.942C27.1458 31.0033 27.3871 31.0344 27.6295 31.0345C27.9723 31.0345 28.2502 31.3124 28.2502 31.6552C28.2502 31.9981 27.9723 32.2759 27.6296 32.2759Z" fill="white"/>
</g>
</svg>
