<svg width="23" height="27" viewBox="0 0 23 27" fill="none" xmlns="http://www.w3.org/2000/svg">
<path d="M14.5152 19.8646H21.7138C21.9032 19.8646 22.0567 19.7111 22.0567 19.5218V18.8124C22.0567 18.6231 21.9032 18.4696 21.7138 18.4696H14.5151C14.1017 18.4696 13.746 18.1519 13.7266 17.739C13.7058 17.2981 14.0571 16.9341 14.4935 16.9341H21.7138C21.9032 16.9341 22.0567 16.7806 22.0567 16.5913V15.9462C22.0567 15.7568 21.9032 15.6033 21.7138 15.6033H14.5151C14.1017 15.6033 13.746 15.2857 13.7266 14.8727C13.7058 14.4318 14.0571 14.0679 14.4935 14.0679H21.7138C21.9032 14.0679 22.0567 13.9144 22.0567 13.725V11.4133L21.9745 11.2503C21.2336 9.78056 20.8331 8.13379 20.8162 6.48805C20.7993 4.8423 21.166 3.18757 21.8764 1.70319C22.0174 1.40891 21.9936 1.06717 21.8119 0.794349C21.6372 0.5323 21.3347 0.384521 21.0199 0.384521H19.7508C19.5877 0.384521 19.4471 0.499608 19.4147 0.659544C19.277 1.3401 19.2594 1.42556 19.256 1.44099C18.8594 3.25592 17.9573 4.94789 16.7157 6.20516C15.2585 7.68096 13.4356 8.46097 11.4443 8.46097C9.44014 8.46097 7.60064 7.68162 6.12479 6.20715C4.84908 4.93272 3.93646 3.18307 3.62083 1.40692C3.61633 1.38168 3.61005 1.33893 3.51851 0.680539C3.49501 0.51105 3.35009 0.384521 3.17892 0.384521H1.7304C1.47091 0.384521 1.21708 0.483517 1.03968 0.672877C0.786005 0.943609 0.720723 1.32856 0.859869 1.66105L1.08974 2.21012C2.23417 4.94329 2.20265 8.06483 1.00331 10.7744L0.711477 11.4336V13.7572C0.711477 13.9465 0.864977 14.1 1.05434 14.1H8.23839C8.65179 14.1 9.00753 14.4177 9.02694 14.8306C9.04773 15.2715 8.69639 15.6355 8.26005 15.6355H1.05428C0.864926 15.6355 0.711426 15.789 0.711426 15.9783V16.6234C0.711426 16.8127 0.864926 16.9662 1.05428 16.9662H8.23834C8.65175 16.9662 9.00748 17.2839 9.02689 17.6969C9.04768 18.1378 8.69634 18.5017 8.26 18.5017H1.05428C0.864926 18.5017 0.711426 18.6552 0.711426 18.8446V19.5539C0.711426 19.7432 0.864926 19.8967 1.05428 19.8967H8.23834C8.65175 19.8967 9.00748 20.2144 9.02689 20.6274C9.04768 21.0682 8.69634 21.4322 8.26 21.4322H1.05428C0.864926 21.4322 0.711426 21.5857 0.711426 21.7751V23.2108C0.711426 24.1035 1.29876 24.8898 2.15479 25.143L2.52063 25.2513C5.42017 26.1093 8.4015 26.5382 11.384 26.5382C14.3657 26.5382 17.3485 26.1091 20.2473 25.2513L20.6133 25.143C21.4693 24.8897 22.0566 24.1034 22.0566 23.2107V21.7429C22.0566 21.5535 21.9031 21.4 21.7138 21.4H14.4935V21.4C14.0571 21.4 13.7059 21.036 13.7266 20.5951C13.7461 20.1823 14.1018 19.8646 14.5152 19.8646Z" fill="#36C6F4"/>
</svg>
