<svg width="11" height="11" viewBox="0 0 11 11" fill="none" xmlns="http://www.w3.org/2000/svg">
<path d="M7.84797 3.63445L8.35807 2.66355C8.65414 2.10001 8.63391 1.42267 8.3047 0.87783C7.97547 0.332965 7.3853 0 6.74872 0H4.25094C3.61436 0 3.02414 0.332965 2.69494 0.877809C2.36573 1.42265 2.34549 2.09999 2.64157 2.66353L3.15167 3.63443C1.85722 4.42748 0.991699 5.85516 0.991699 7.48129C0.991699 8.58262 1.39331 9.64305 2.12255 10.4672C2.42217 10.8058 2.85347 11 3.30587 11H7.69384C8.14623 11 8.57751 10.8058 8.87713 10.4672C9.60637 9.64303 10.008 8.5826 10.008 7.48129C10.008 5.85518 9.14242 4.4275 7.84797 3.63445ZM6.91608 2.11359L6.41532 3.0667C6.11961 3.00545 5.81339 2.97316 5.49981 2.97316C5.18622 2.97316 4.88001 3.00543 4.58429 3.0667L4.08354 2.11359C4.01893 1.99061 4.02334 1.84278 4.09518 1.72386C4.16703 1.60497 4.29582 1.53229 4.43476 1.53229H6.5649C6.70384 1.53229 6.83263 1.60495 6.90448 1.72386C6.9763 1.84278 6.98073 1.99059 6.91608 2.11359Z" fill="#252525"/>
</svg>
