<svg width="27" height="23" viewBox="0 0 27 23" fill="none" xmlns="http://www.w3.org/2000/svg">
<path d="M24.6265 18.2712H1.9895C1.83005 18.2712 1.70068 18.4006 1.70068 18.5601V20.2663C1.70068 21.2618 2.5108 22.0718 3.50633 22.0718H23.1097C24.1051 22.0718 24.9153 21.2618 24.9153 20.2663V18.5601C24.9153 18.4005 24.786 18.2712 24.6265 18.2712Z" fill="#F4CA36"/>
<path d="M24.6702 13.5518H1.94378C1.00381 13.5518 0.239258 14.4128 0.239258 15.4712C0.239258 16.5296 1.00381 17.3905 1.94378 17.3905H24.6702C25.61 17.3905 26.3747 16.5296 26.3747 15.4712C26.3747 14.4128 25.61 13.5518 24.6702 13.5518Z" fill="#F4CA36"/>
<path d="M1.97718 10.7572H24.6377C24.6381 10.7572 24.6384 10.7572 24.6388 10.7572C24.7982 10.7572 24.9276 10.6279 24.9276 10.4684C24.9276 10.4599 24.9271 10.4515 24.9264 10.4433C24.92 7.41517 23.7332 4.92039 21.4933 3.22734C19.437 1.67296 16.6063 0.851318 13.3076 0.851318C10.0086 0.851318 7.17807 1.67296 5.12176 3.22734C2.87565 4.9251 1.68848 7.42902 1.68848 10.4684C1.68837 10.6279 1.81773 10.7572 1.97718 10.7572Z" fill="#F4CA36"/>
<path d="M0.84797 12.9954H25.7678C26.1086 12.9954 26.3848 12.7192 26.3848 12.3784C26.3848 12.0376 26.1086 11.7615 25.7678 11.7615H0.84797C0.507163 11.7614 0.230957 12.0376 0.230957 12.3784C0.230957 12.7191 0.507163 12.9954 0.84797 12.9954Z" fill="#F4CA36"/>
</svg>
