<svg width="25" height="24" viewBox="0 0 25 24" fill="none" xmlns="http://www.w3.org/2000/svg">
<path fill-rule="evenodd" clip-rule="evenodd" d="M0.564334 0.041055C0.381211 0.0967869 0.149975 0.319317 0.0647883 0.52188C-0.0718822 0.846635 0.00964139 1.18704 0.290749 1.46535C0.492482 1.66508 0.676679 1.70507 1.85367 1.80441C2.35067 1.84638 2.86722 1.91309 3.00154 1.95263C3.55091 2.11446 3.95545 2.46261 4.21218 2.99465C4.27813 3.13125 5.37061 6.46052 6.63997 10.393L8.94788 17.5431L8.83216 17.6356C7.94615 18.344 7.51142 19.0802 7.37329 20.1062C7.1822 21.5256 7.97179 23.0164 9.25268 23.6545C9.7721 23.9133 10.1488 23.9992 10.768 24C11.7858 24.0014 12.6151 23.6401 13.2935 22.8999C13.8506 22.2919 14.1374 21.6066 14.1939 20.7488L14.2252 20.2734L17.1614 19.2942C24.8782 16.7205 24.5208 16.8457 24.7229 16.6451C25.0435 16.3267 25.0886 15.9166 24.8441 15.5411C24.697 15.3148 24.4552 15.189 24.1688 15.1895C24.0217 15.1897 22.3862 15.7158 18.852 16.8998L13.7476 18.6099L13.6288 18.4518C13.5634 18.3648 13.3566 18.142 13.1692 17.9566C12.6099 17.4034 11.8271 17.0629 10.9583 16.9948L10.5624 16.9638L8.32695 10.0537C7.0975 6.25318 6.01435 2.93132 5.91998 2.67178C5.56477 1.69508 4.9819 1.01289 4.12788 0.574532C3.51735 0.261102 3.33018 0.220421 1.88693 0.0875976C0.708234 -0.020886 0.761817 -0.0189985 0.564334 0.041055ZM14.7331 2.77351C11.8632 3.7291 9.45631 4.54218 9.38446 4.58038C9.08005 4.74211 8.88746 5.05768 8.88746 5.3947C8.88746 5.55415 12.1286 15.7383 12.2569 15.9822C12.3357 16.1319 12.632 16.368 12.8204 16.4312C12.9194 16.4645 13.0807 16.478 13.1787 16.4614C13.2767 16.4447 15.7056 15.6495 18.5764 14.6943C22.2794 13.4621 23.8441 12.9202 23.9616 12.829C24.1615 12.674 24.2659 12.4813 24.3039 12.1972C24.3287 12.0123 24.1448 11.4032 22.8606 7.41546C20.8944 1.31047 20.9681 1.52873 20.8148 1.36163C20.6471 1.17884 20.3407 1.03459 20.122 1.03544C20.028 1.03584 17.603 1.81797 14.7331 2.77351Z" fill="white"/>
</svg>
