<svg width="20" height="20" viewBox="0 0 20 20" fill="none" xmlns="http://www.w3.org/2000/svg">
<path fill-rule="evenodd" clip-rule="evenodd" d="M10.5841 0.0391587C10.409 0.090464 10.1725 0.303344 10.0906 0.483362C10.0214 0.635285 10.0181 0.856487 10.0173 5.40105C10.0164 10.6127 10.0029 10.3064 10.2436 10.5626C10.4644 10.7976 10.88 10.8898 11.1629 10.7665C11.2322 10.7364 11.8086 10.3674 12.4438 9.94671L13.5988 9.18178L16.4177 9.1801C17.9681 9.1792 19.3035 9.1629 19.3854 9.14395C19.5881 9.09699 19.7772 8.96046 19.8987 8.77356L20 8.61761V4.59916C20 0.664044 19.9984 0.577532 19.922 0.428227C19.8347 0.257431 19.6553 0.108829 19.4558 0.0421675C19.2936 -0.0120684 10.7688 -0.01496 10.5841 0.0391587ZM17.5335 2.49849V3.31906H15.0278H12.5221V2.49849V1.67792H15.0278H17.5335V2.49849ZM7.33458 6.74327C6.34405 7.46385 5.53002 8.06517 5.52564 8.07955C5.51851 8.10284 9.50238 11.1001 9.65946 11.1897C9.6943 11.2095 9.65472 11.1501 9.57149 11.0576C9.48829 10.9651 9.37377 10.7906 9.317 10.6698L9.21384 10.4502L9.20296 7.93967C9.19696 6.55884 9.17935 5.43 9.1638 5.4311C9.14826 5.43223 8.32511 6.02269 7.33458 6.74327ZM17.5335 6.65996V7.50007H15.0278H12.5221V6.65996V5.81985H15.0278H17.5335V6.65996ZM2.22405 10.4559C1.20193 11.1973 0.315002 11.851 0.253065 11.9086C-0.0851234 12.2229 -0.084223 12.7797 0.254983 13.0974C0.498347 13.3252 3.81414 15.7058 3.8697 15.6925C3.94362 15.6748 8.45098 12.424 8.44875 12.3899C8.44749 12.3712 5.40325 10.0814 4.22437 9.21245L4.08245 9.10785L2.22405 10.4559ZM12.9813 11.2024C12.0624 11.8633 11.3109 12.4128 11.3112 12.4235C11.3117 12.4412 15.7986 15.8063 15.9054 15.8691C15.9659 15.9046 19.7026 13.1893 19.8589 12.9962C19.9741 12.8539 19.9804 12.8283 19.9804 12.5047C19.9804 12.1922 19.9713 12.1515 19.8722 12.0219C19.8127 11.944 19.1822 11.4575 18.4709 10.9406L17.1778 10.0009H15.9148H14.6519L12.9813 11.2024ZM7.84167 14.9091C6.72296 15.7154 5.68737 16.4627 5.54036 16.5696L5.27303 16.7641L7.44992 18.3434C8.7809 19.309 9.68346 19.9384 9.77268 19.9632C9.96335 20.016 10.121 20.0122 10.2937 19.9505C10.3968 19.9138 14.2677 17.1517 14.4938 16.9536C14.5123 16.9374 13.4993 16.1552 12.2426 15.2153C10.9859 14.2755 9.93923 13.4922 9.91668 13.4747C9.89206 13.4557 9.06221 14.0293 7.84167 14.9091Z" fill="white"/>
</svg>
