<svg width="16" height="16" viewBox="0 0 16 16" fill="none" xmlns="http://www.w3.org/2000/svg">
<path fill-rule="evenodd" clip-rule="evenodd" d="M0.845401 0.035348C0.49744 0.146795 0.249112 0.3608 0.096908 0.680399L0 0.883825V8.00376V15.1237L0.096908 15.3271C0.220023 15.5857 0.414528 15.7801 0.67319 15.9031L0.876712 16H3.66406H6.45141L6.65966 15.8975C6.9176 15.7706 7.15272 15.5233 7.25414 15.2723L7.32681 15.0924V8.00376V0.915122L7.25414 0.735261C7.15272 0.484233 6.9176 0.236928 6.65969 0.10999L6.45148 0.00752547L3.71106 0.00136007C1.55463 -0.00345958 0.943969 0.0037699 0.845401 0.035348ZM9.53202 0.0343152C9.19909 0.124856 8.87609 0.413221 8.74533 0.73667C8.67485 0.910991 8.67319 0.940159 8.67319 1.99485C8.67319 3.05176 8.67472 3.07836 8.74586 3.25444C8.84728 3.5055 9.0824 3.75277 9.34034 3.87971L9.54859 3.98217H12.3359H15.1233L15.3318 3.88343C15.5908 3.76078 15.777 3.5736 15.903 3.3093L16 3.10587V1.99485V0.883825L15.903 0.680399C15.777 0.4161 15.5908 0.228916 15.3318 0.106266L15.1233 0.00752547L12.3992 0.00148526C10.3096 -0.00317791 9.6418 0.00448971 9.53202 0.0343152ZM9.53202 6.04323C9.19909 6.13377 8.87609 6.42214 8.74533 6.74558C8.67485 6.91991 8.67319 6.94907 8.67319 8.00376C8.67319 9.06067 8.67472 9.08728 8.74586 9.26335C8.84728 9.51441 9.0824 9.76168 9.34034 9.88862L9.54859 9.99109H12.3359H15.1233L15.3318 9.89235C15.5908 9.76969 15.777 9.58251 15.903 9.31821L16 9.11479V8.00376V6.89274L15.903 6.68931C15.777 6.42501 15.5908 6.23783 15.3318 6.11518L15.1233 6.01644L12.3992 6.0104C10.3096 6.00574 9.6418 6.0134 9.53202 6.04323ZM9.53202 12.0521C9.19909 12.1427 8.87609 12.431 8.74533 12.7545C8.67485 12.9288 8.67319 12.958 8.67319 14.0127C8.67319 15.0696 8.67472 15.0962 8.74586 15.2723C8.84728 15.5233 9.0824 15.7706 9.34034 15.8975L9.54859 16H12.3359H15.1233L15.3318 15.9013C15.5908 15.7786 15.777 15.5914 15.903 15.3271L16 15.1237V14.0127V12.9017L15.903 12.6982C15.777 12.4339 15.5908 12.2467 15.3318 12.1241L15.1233 12.0254L12.3992 12.0193C10.3096 12.0147 9.6418 12.0223 9.53202 12.0521Z" fill="white" fill-opacity="0.5"/>
</svg>
