<svg width="14" height="16" viewBox="0 0 14 16" fill="none" xmlns="http://www.w3.org/2000/svg">
<path fill-rule="evenodd" clip-rule="evenodd" d="M5 0.500101V1.0002H2.5H0V2.0004V3.0006H7H14V2.0004V1.0002H11.5H9V0.500101V0H7H5V0.500101ZM1.00053 9.10339C1.00116 14.8001 0.986969 14.4336 1.22522 14.9092C1.45256 15.3631 1.85969 15.7137 2.38016 15.9039L2.60937 15.9876L6.89734 15.9961C11.7017 16.0055 11.4297 16.0173 11.9045 15.7782C12.3608 15.5485 12.7417 15.103 12.9149 14.5967L12.9844 14.3935L12.9927 9.19716L13.0011 4.0008H7.00053H1L1.00053 9.10339Z" fill="white" fill-opacity="0.5"/>
</svg>
