<svg width="28" height="31" viewBox="0 0 28 31" fill="none" xmlns="http://www.w3.org/2000/svg">
<path d="M20.8308 10.2425L22.3147 7.50636C23.176 5.91822 23.1171 4.00935 22.1594 2.47388C21.2017 0.938356 19.4848 0 17.6329 0H10.3667C8.51482 0 6.79782 0.938356 5.84013 2.47382C4.88244 4.00929 4.82357 5.91815 5.68488 7.5063L7.16882 10.2425C3.40313 12.4774 0.885254 16.5009 0.885254 21.0836C0.885254 24.1874 2.05357 27.1759 4.175 29.4984C5.04663 30.4526 6.30132 30.9999 7.61738 30.9999H20.3824C21.6984 30.9999 22.9531 30.4527 23.8247 29.4984C25.9461 27.1758 27.1144 24.1873 27.1144 21.0836C27.1144 16.501 24.5964 12.4775 20.8308 10.2425ZM18.1198 5.95648L16.6631 8.64252C15.8028 8.4699 14.912 8.3789 13.9998 8.3789C13.0875 8.3789 12.1967 8.46984 11.3364 8.64252L9.87969 5.95648C9.69175 5.60991 9.70457 5.19329 9.91357 4.85816C10.1226 4.52309 10.4973 4.31826 10.9014 4.31826H17.0982C17.5024 4.31826 17.8771 4.52303 18.0861 4.85816C18.295 5.19329 18.3079 5.60985 18.1198 5.95648Z" fill="white"/>
</svg>
